<?xml version="1.0" standalone="no"?>
<!DOCTYPE svg PUBLIC "-//W3C//DTD SVG 20010904//EN"
 "http://www.w3.org/TR/2001/REC-SVG-20010904/DTD/svg10.dtd">
<svg version="1.0" xmlns="http://www.w3.org/2000/svg"
 width="1539.000000pt" height="321.000000pt" viewBox="0 0 1539.000000 321.000000"
 preserveAspectRatio="xMidYMid meet">

<g transform="translate(0.000000,321.000000) scale(0.100000,-0.100000)"
fill="#000000" stroke="none">
<path d="M3261 3189 c-30 -5 -91 -22 -135 -37 -71 -24 -81 -31 -84 -53 -5 -47
17 -52 99 -25 41 14 110 31 154 38 71 12 80 16 83 36 2 13 -2 30 -8 38 -14 15
-29 16 -109 3z"/>
<path d="M3580 3145 c-23 -28 -6 -50 71 -87 42 -21 96 -55 120 -76 54 -47 72
-54 95 -37 27 19 10 55 -51 105 -54 44 -177 110 -205 110 -10 0 -23 -7 -30
-15z"/>
<path d="M2768 2938 c-72 -67 -148 -163 -148 -187 0 -48 55 -50 86 -3 9 15 53
64 96 109 61 62 79 87 76 105 -6 43 -46 35 -110 -24z"/>
<path d="M3960 2775 c-9 -11 -7 -28 11 -82 13 -37 30 -106 39 -153 14 -75 18
-85 38 -88 41 -6 55 16 48 73 -10 75 -45 198 -67 233 -20 34 -49 41 -69 17z"/>
<path d="M2517 2538 c-24 -18 -49 -158 -45 -254 3 -74 5 -79 26 -82 40 -6 52
14 52 89 0 38 7 105 16 150 16 79 16 83 -1 96 -23 16 -27 16 -48 1z"/>
<path d="M9022 2431 c-70 -6 -91 -17 -92 -47 0 -30 29 -35 180 -30 149 4 180
11 180 42 0 41 -72 51 -268 35z"/>
<path d="M9496 2395 c-36 -36 -16 -58 69 -75 33 -7 98 -23 144 -37 83 -24 85
-24 104 -5 15 16 17 24 8 40 -12 22 -35 31 -156 61 -132 32 -151 33 -169 16z"/>
<path d="M8556 2364 c-146 -34 -156 -39 -156 -68 0 -45 19 -48 131 -22 57 14
124 28 148 33 50 9 72 33 55 61 -16 25 -56 24 -178 -4z"/>
<path d="M4027 2247 c-8 -7 -21 -39 -27 -72 -7 -33 -26 -98 -42 -144 -29 -83
-29 -84 -10 -103 29 -29 56 -10 82 59 28 76 63 222 56 238 -9 24 -41 36 -59
22z"/>
<path d="M8025 2203 c-66 -25 -126 -50 -133 -56 -19 -15 -11 -61 11 -65 17 -3
195 57 275 93 28 13 33 20 30 43 -5 41 -45 38 -183 -15z"/>
<path d="M10012 2228 c-21 -21 -13 -48 19 -66 16 -9 76 -45 131 -80 110 -68
141 -74 146 -30 3 22 -5 33 -45 62 -63 46 -206 126 -224 126 -8 0 -20 -5 -27
-12z"/>
<path d="M7520 1987 c-129 -60 -135 -64 -135 -92 0 -48 34 -43 179 24 117 54
145 72 146 93 0 11 -30 38 -43 38 -7 0 -73 -28 -147 -63z"/>
<path d="M2526 1994 c-9 -8 -16 -19 -16 -24 0 -20 55 -160 87 -222 28 -53 40
-68 58 -68 12 0 28 7 35 15 11 13 5 32 -32 113 -25 53 -51 115 -58 137 -11 37
-33 65 -51 65 -4 0 -15 -7 -23 -16z"/>
<path d="M11512 1978 c-7 -7 -12 -19 -12 -28 0 -35 21 -40 176 -40 125 0 155
3 168 16 19 18 19 20 6 45 -10 18 -23 19 -168 19 -110 0 -162 -4 -170 -12z"/>
<path d="M12063 1975 c-11 -8 -14 -20 -9 -38 7 -30 21 -33 207 -42 127 -5 144
0 137 47 -3 20 -10 24 -58 29 -118 14 -260 16 -277 4z"/>
<path d="M11130 1967 c-136 -9 -180 -21 -180 -52 0 -8 10 -21 23 -28 30 -19
314 2 328 24 16 26 7 51 -21 60 -8 3 -76 1 -150 -4z"/>
<path d="M12615 1936 c-10 -7 -16 -22 -13 -37 4 -28 18 -32 193 -53 77 -9 126
-11 138 -5 18 10 23 54 7 64 -5 3 -63 13 -127 20 -65 8 -132 17 -150 19 -17 3
-39 -1 -48 -8z"/>
<path d="M10630 1913 c-92 -13 -107 -13 -142 2 -18 7 -78 -45 -78 -68 0 -21
22 -37 52 -37 24 0 39 -14 99 -95 38 -52 76 -95 83 -95 7 0 21 9 30 19 21 23
15 37 -45 118 -22 29 -39 56 -39 62 0 5 30 13 68 16 82 9 102 19 102 50 0 38
-25 43 -130 28z"/>
<path d="M13147 1863 c-12 -11 -8 -51 6 -60 6 -4 77 -20 157 -34 151 -28 180
-26 180 10 0 31 -26 43 -153 67 -126 24 -179 29 -190 17z"/>
<path d="M10031 1794 c-140 -43 -153 -50 -149 -76 6 -43 29 -43 161 -5 68 20
131 37 140 37 25 0 48 39 36 62 -14 26 -57 22 -188 -18z"/>
<path d="M7028 1754 c-76 -37 -140 -74 -143 -82 -8 -22 14 -52 38 -51 30 1
267 120 281 142 13 20 -2 50 -25 55 -8 1 -76 -28 -151 -64z"/>
<path d="M13696 1758 c-24 -14 -20 -57 7 -68 12 -5 81 -23 154 -41 110 -27
134 -30 147 -20 19 16 21 45 3 59 -10 8 -170 52 -278 76 -9 2 -24 -1 -33 -6z"/>
<path d="M3721 1649 c-61 -61 -111 -119 -111 -129 0 -24 25 -43 48 -36 26 9
222 211 222 230 0 15 -26 46 -39 46 -5 0 -59 -50 -120 -111z"/>
<path d="M15035 1693 c-86 -18 -106 -60 -73 -148 13 -33 95 -165 103 -165 12
0 98 142 110 184 17 54 6 97 -28 114 -27 13 -85 21 -112 15z m94 -39 c26 -21
31 -33 31 -69 0 -59 -36 -95 -95 -95 -61 0 -95 34 -95 94 0 37 5 48 31 70 19
17 43 26 64 26 21 0 45 -9 64 -26z"/>
<path d="M9610 1613 c-25 -14 -70 -45 -100 -69 -104 -80 -115 -97 -85 -128 20
-19 35 -13 112 48 35 27 87 63 115 81 45 26 53 36 53 61 0 40 -36 43 -95 7z"/>
<path d="M14210 1601 c-17 -33 17 -55 156 -100 72 -22 139 -41 147 -41 9 0 21
9 27 20 21 38 -2 54 -142 98 -149 47 -173 50 -188 23z"/>
<path d="M6527 1522 c-140 -62 -160 -79 -127 -112 23 -23 12 -25 192 52 120
51 144 72 118 103 -20 24 -47 17 -183 -43z"/>
<path d="M2798 1529 c-43 -24 -9 -77 126 -197 53 -48 76 -62 96 -60 17 2 26
10 28 26 3 17 -21 46 -109 130 -61 59 -114 108 -118 109 -3 1 -14 -2 -23 -8z"/>
<path d="M10732 1437 c-9 -11 -7 -32 8 -93 12 -43 23 -106 27 -139 3 -33 10
-68 15 -77 11 -23 55 -23 67 0 11 21 -10 170 -36 257 -16 51 -23 60 -44 63
-14 2 -31 -3 -37 -11z"/>
<path d="M14740 1436 c-26 -33 -8 -58 64 -88 81 -33 111 -35 126 -9 15 29 -14
56 -94 86 -80 29 -80 29 -96 11z"/>
<path d="M3299 1357 c-59 -29 -117 -56 -129 -62 -59 -26 -45 -82 18 -71 49 7
261 112 269 132 8 22 -9 48 -33 51 -10 1 -67 -22 -125 -50z"/>
<path d="M6020 1326 c-132 -46 -145 -53 -145 -75 0 -48 25 -49 164 -3 138 46
178 68 168 95 -14 37 -39 35 -187 -17z"/>
<path d="M15046 1324 c-17 -16 -12 -40 9 -48 19 -7 46 20 39 39 -8 21 -32 26
-48 9z"/>
<path d="M9242 1260 c-26 -28 -98 -176 -114 -233 -11 -41 -10 -49 5 -64 26
-26 60 -5 76 48 7 24 35 86 62 138 39 74 47 97 38 112 -13 25 -43 24 -67 -1z"/>
<path d="M2755 1177 c-71 -18 -136 -36 -142 -40 -18 -11 -16 -42 3 -58 13 -11
40 -8 162 20 81 18 153 38 160 44 7 5 12 22 10 36 -4 36 -35 36 -193 -2z"/>
<path d="M5501 1169 c-140 -37 -164 -49 -158 -78 6 -36 34 -37 169 -3 136 35
178 52 178 76 0 12 -31 47 -41 45 -2 0 -69 -18 -148 -40z"/>
<path d="M3215 1187 c-13 -10 -16 -21 -12 -39 5 -20 25 -34 94 -65 167 -77
214 -87 230 -47 11 29 -9 44 -98 79 -47 18 -109 45 -137 59 -60 31 -54 29 -77
13z"/>
<path d="M2213 1091 c-135 -17 -158 -25 -151 -56 6 -35 31 -40 155 -26 171 18
187 23 191 49 4 30 -15 52 -42 51 -11 -1 -81 -9 -153 -18z"/>
<path d="M4975 1054 c-162 -32 -162 -32 -169 -50 -8 -22 11 -54 34 -54 10 0
81 11 157 25 129 24 163 38 163 66 0 14 -32 39 -48 38 -9 -1 -71 -12 -137 -25z"/>
<path d="M17 1043 c-14 -13 -7 -52 11 -61 9 -5 52 -12 95 -15 62 -4 80 -2 93
10 20 21 14 45 -16 60 -26 13 -172 18 -183 6z"/>
<path d="M1636 1040 c-80 -5 -101 -10 -112 -25 -18 -24 -18 -29 4 -48 15 -14
34 -15 162 -6 151 11 180 18 180 47 0 44 -23 47 -234 32z"/>
<path d="M438 1019 c-22 -12 -23 -42 -3 -59 16 -13 267 -27 309 -16 21 5 26
12 26 36 0 36 -2 37 -180 44 -84 4 -142 2 -152 -5z"/>
<path d="M980 1006 c-6 -8 -10 -25 -8 -38 3 -23 5 -23 162 -26 108 -2 163 1
172 9 19 16 18 55 -2 63 -9 3 -82 6 -164 6 -116 0 -150 -3 -160 -14z"/>
<path d="M3730 1006 c-6 -8 -10 -25 -8 -38 2 -19 12 -25 63 -35 109 -21 247
-33 266 -22 22 11 25 42 5 58 -8 6 -54 16 -102 22 -49 5 -113 14 -143 19 -69
13 -66 13 -81 -4z"/>
<path d="M4375 981 c-98 -6 -115 -13 -115 -40 0 -40 23 -44 178 -38 133 6 149
9 164 28 13 16 15 26 8 40 -12 21 -43 22 -235 10z"/>
<path d="M10782 908 c-6 -7 -19 -51 -31 -98 -11 -47 -29 -111 -40 -143 l-20
-58 20 -20 c18 -18 23 -19 42 -6 28 19 65 129 91 274 8 48 -35 83 -62 51z"/>
<path d="M9102 748 c-17 -17 -15 -53 7 -140 20 -76 62 -171 81 -183 16 -10 48
4 55 24 3 10 -8 46 -24 81 -16 34 -35 94 -41 133 -7 40 -17 78 -22 85 -13 15
-40 16 -56 0z"/>
<path d="M10521 348 c-38 -40 -88 -86 -110 -103 -47 -35 -55 -49 -41 -76 15
-27 40 -24 89 11 60 44 171 161 178 187 6 25 -11 53 -33 53 -7 0 -45 -33 -83
-72z"/>
<path d="M9356 284 c-9 -8 -16 -22 -16 -30 0 -34 223 -174 277 -174 27 0 46
24 39 48 -4 10 -38 33 -78 53 -39 19 -98 53 -131 77 -34 23 -64 42 -68 42 -4
0 -15 -7 -23 -16z"/>
<path d="M10115 109 c-16 -5 -79 -11 -139 -14 -132 -5 -160 -21 -116 -65 23
-23 97 -26 215 -10 92 14 103 18 116 42 8 15 7 24 -7 39 -19 21 -25 22 -69 8z"/>
</g>
</svg>
